<?xml version="1.0" encoding="UTF-8"?>
<svg width="160px" height="58px" viewBox="0 0 160 58" version="1.1" xmlns="http://www.w3.org/2000/svg" xmlns:xlink="http://www.w3.org/1999/xlink">
    <title>logo</title>
    <g id="Page-1" stroke="none" stroke-width="1" fill="none" fill-rule="evenodd">
        <g id="FairLife---DZ---e-mailovyÌ-podpis" transform="translate(-55.000000, -194.000000)" fill-rule="nonzero">
            <g id="logo" transform="translate(55.000000, 194.000000)">
                <path d="M49.1501654,13.9705 C45.4721654,11.9237 41.7911654,9.8768 38.1131654,7.8301 L25.1071654,10.2728 L12.1021654,7.8301 C8.42416545,9.8768 4.74316545,11.9237 1.06416545,13.9705 C0.312165448,14.3859 -0.100834552,15.2226 0.0211654475,16.073 C0.203165448,17.3113 0.384165448,18.5495 0.562165448,19.7903 C1.35716545,18.9313 2.19116545,18.2845 2.96316545,17.7992 C3.73316545,17.314 4.43916545,16.9905 4.97716545,16.7813 C3.77216545,17.9443 2.18016545,19.7849 0.970165448,22.3949 C0.961165448,22.4088 0.956165448,22.423 0.950165448,22.4368 C1.42716545,25.719 1.90716545,29.0038 2.38316545,32.2887 C2.72116545,30.5543 3.45716545,28.0082 5.20816545,25.4065 C6.01116545,24.2129 6.86216545,23.2536 7.63716545,22.498 C7.04916545,23.7251 6.32116545,25.426 5.68516545,27.5203 C5.51216545,28.0893 4.57816545,31.1064 4.39116545,33.7779 C4.04316545,38.722 5.94416545,43.022 7.62616545,45.8159 C8.12016545,43.6574 8.85616545,41.2424 9.95716545,38.6938 C10.3531654,37.7791 10.7661654,36.9146 11.1841654,36.106 C10.7131654,37.9241 10.2811654,39.9599 9.95716545,42.1906 C9.79516545,43.2892 9.67316545,44.3489 9.58616545,45.3669 C9.47216545,46.6579 10.1021654,47.9019 11.2121654,48.5769 C12.6061654,49.4239 14.0011654,50.2719 15.3921654,51.1229 C15.2001654,50.0819 15.0271654,48.3539 15.5231654,46.3319 C15.8221654,45.1129 16.2791654,44.1319 16.6891654,43.4177 C16.5161654,44.7509 16.4301654,46.6189 16.8171654,48.7909 C17.0961654,50.3559 17.5481654,51.6639 17.9831654,52.6729 C20.3561654,54.2619 22.7351654,55.8519 25.1081654,57.4389 C27.4811654,55.8519 29.8591654,54.2619 32.2331654,52.6729 C32.6681654,51.6639 33.1191654,50.3559 33.3981654,48.7909 C33.7861654,46.6189 33.6991654,44.7509 33.5261654,43.4177 C33.9361654,44.1319 34.3941654,45.1129 34.6921654,46.3319 C35.1881654,48.3539 35.0151654,50.0819 34.8231654,51.1229 C36.2141654,50.2719 37.6091654,49.4239 39.0031654,48.5769 C40.1131654,47.9019 40.7431654,46.6579 40.6291654,45.3669 C40.5421654,44.3489 40.4201654,43.2892 40.2581654,42.1906 C39.9341654,39.9599 39.5021654,37.9241 39.0311654,36.106 C39.4491654,36.9146 39.8621654,37.7791 40.2581654,38.6938 C41.3591654,41.2424 42.0951654,43.6574 42.5891654,45.8159 C44.2711654,43.0217 46.1721654,38.7216 45.8241654,33.7779 C45.6371654,31.1064 44.7031654,28.0891 44.5301654,27.5203 C43.8941654,25.426 43.1661654,23.7252 42.5781654,22.498 C43.3531654,23.2536 44.2041654,24.2129 45.0071654,25.4065 C46.7581654,28.0082 47.4941654,30.5543 47.8321654,32.2887 C48.3091654,29.0038 48.7881654,25.719 49.2651654,22.4368 C49.2591654,22.4229 49.2541654,22.4087 49.2451654,22.3949 C48.0351654,19.7849 46.4431654,17.9443 45.2381654,16.7813 C45.7761654,16.9907 46.4821654,17.314 47.2521654,17.7992 C48.0241654,18.2845 48.8581654,18.9313 49.6531654,19.7903 C49.8311654,18.5495 50.0121654,17.3113 50.1941654,16.073 C50.3161654,15.2226 49.9041654,14.3859 49.1501654,13.9705 L49.1501654,13.9705 Z M25.1071654,45.1245 C21.4071654,45.1135 19.2741654,42.4364 19.0311654,42.1214 C21.0561654,41.4467 23.0831654,40.769 25.1071654,40.0941 C27.1321654,40.7689 29.1591654,41.4466 31.1841654,42.1214 C30.9411654,42.4364 28.8081654,45.1135 25.1071654,45.1245 L25.1071654,45.1245 Z M37.2521654,29.6895 C36.2341654,30.5149 35.0151654,30.6125 34.3681654,30.6042 C34.5191654,32.3889 34.6671654,34.1735 34.8141654,35.9583 C34.8811654,36.7557 34.7031654,37.5701 34.2511654,38.2338 C34.0611654,38.51 33.8241654,38.7747 33.5261654,39.0007 C33.5151654,39.0118 33.4731654,39.0452 33.4201654,39.0785 C33.4201654,39.0785 32.3691654,39.8148 30.5481654,39.681 C29.1931654,39.5807 27.0621654,38.4457 25.1071654,36.2901 C23.1531654,38.4459 21.0221654,39.5807 19.6671654,39.681 C17.8461654,39.8148 16.7951654,39.0785 16.7951654,39.0785 C16.7421654,39.0452 16.7001654,39.0118 16.6891654,39.0007 C16.3901654,38.7747 16.1531654,38.51 15.9641654,38.2338 C15.5121654,37.5701 15.3331654,36.7557 15.4001654,35.9583 C15.5481654,34.1735 15.6961654,32.3889 15.8471654,30.6042 C15.2001654,30.6125 13.9811654,30.5149 12.9631654,29.6895 C11.3041654,28.3398 10.8411654,25.5764 12.0371654,22.955 C12.9101654,23.0024 14.1181654,23.1557 15.4781654,23.6354 C16.9541654,24.1543 18.0631654,24.8625 18.7911654,25.4117 C19.0141654,27.8183 19.4221654,29.4217 19.6891654,30.3141 C19.8341654,30.7909 19.9771654,31.1339 20.0881654,31.4463 L22.0461654,20.2303 C21.0921654,19.904 19.8571654,19.5834 18.3901654,19.4608 C16.0331654,19.2628 14.0901654,19.6559 12.8211654,20.0241 C13.4431654,18.0246 14.0621654,16.0253 14.6841654,14.0258 C18.1581654,14.6811 21.6331654,15.3364 25.1071654,15.9917 C28.5821654,15.3364 32.0571654,14.6811 35.5311654,14.0258 C36.1531654,16.0252 36.7721654,18.0244 37.3941654,20.0241 C36.1251654,19.6559 34.1821654,19.2628 31.8251654,19.4608 C30.3591654,19.5834 29.1231654,19.904 28.1691654,20.2303 L30.1271654,31.4463 C30.2391654,31.1339 30.3811654,30.7909 30.5261654,30.3141 C30.7931654,29.4217 31.2011654,27.8183 31.4241654,25.4117 C32.1511654,24.8625 33.2611654,24.1543 34.7371654,23.6354 C36.0971654,23.1557 37.3051654,23.0024 38.1781654,22.955 C39.3741654,25.5763 38.9111654,28.3398 37.2521654,29.6895 L37.2521654,29.6895 Z" id="Shape" fill="#12456B"></path>
                <path d="M28.5601654,34.1215 C29.4671654,33.1206 29.9071654,32.0915 30.1221654,31.4473 L25.1021654,30.1507 L20.0831654,31.4473 C20.2981654,32.0915 20.7381654,33.1204 21.6451654,34.1215 C22.9191654,35.5271 24.3971654,36.0817 25.1021654,36.291 C25.8081654,36.0817 27.2861654,35.5271 28.5601654,34.1215 L28.5601654,34.1215 Z" id="Path" fill="#12456B"></path>
                <path d="M38.6301654,0.0835 C38.2341654,2.1387 37.8391654,4.1939 37.4451654,6.2519 L25.1111654,8.5748 L12.7771654,6.2519 C12.3841654,4.1939 11.9881654,2.1387 11.5921654,0.0835 C13.6701654,1.4053 15.7471654,2.7299 17.8251654,4.0546 C18.5801654,2.702 19.3331654,1.3525 20.0891654,-8.8817842e-16 C21.7621654,1.6173 23.4351654,3.2375 25.1111654,4.8549 C26.7871654,3.2375 28.4601654,1.6173 30.1331654,-8.8817842e-16 C30.8891654,1.3525 31.6421654,2.702 32.3981654,4.0546 C34.4751654,2.73 36.5531654,1.4054 38.6301654,0.0835 L38.6301654,0.0835 Z" id="Path" fill="#2CB6CD"></path>
                <g id="Group" transform="translate(63.250165, 20.273500)" fill="#12456B">
                    <polygon id="Path" points="7.10542736e-15 20.844 4.27 20.844 4.27 13.1471 11.657 13.1471 11.657 9.467 4.27 9.467 4.27 4.3829 13.034 4.3829 13.034 0.6747 0 0.6747"></polygon>
                    <path d="M20.69,5.562 C19.491,5.562 18.428,5.7963 17.501,6.2642 C16.574,6.7326 15.834,7.3927 15.282,8.2447 C14.729,9.097 14.416,10.1035 14.341,11.2643 L17.852,11.2643 C17.927,10.4219 18.208,9.7665 18.695,9.2981 C19.182,8.8301 19.847,8.5958 20.69,8.5958 C21.514,8.5958 22.151,8.8302 22.6,9.2981 C23.049,9.7665 23.274,10.4219 23.274,11.2643 L23.274,12.1632 C22.824,12.107 22.403,12.065 22.01,12.0367 C21.617,12.0088 21.205,11.9948 20.774,11.9948 C18.601,11.9948 16.935,12.3787 15.774,13.1465 C14.612,13.9146 14.032,15.0286 14.032,16.4894 C14.032,17.894 14.51,19.0173 15.465,19.8601 C16.42,20.7029 17.674,21.1245 19.229,21.1245 C20.259,21.1245 21.148,20.9417 21.898,20.5767 C22.646,20.2113 23.264,19.6826 23.751,18.9894 L23.751,20.8434 L26.926,20.8434 L26.926,11.4049 C26.926,9.5698 26.378,8.1371 25.282,7.1071 C24.187,6.0773 22.656,5.562 20.69,5.562 Z M23.274,15.59 C23.274,16.4516 22.988,17.1398 22.417,17.6546 C21.846,18.1699 21.064,18.427 20.072,18.427 C19.341,18.427 18.765,18.2401 18.344,17.8653 C17.923,17.4907 17.712,16.9942 17.712,16.3763 C17.712,15.6838 17.993,15.1686 18.555,14.8313 C19.117,14.4942 19.94,14.3257 21.027,14.3257 C21.364,14.3257 21.71,14.3397 22.066,14.3677 C22.422,14.3959 22.824,14.4478 23.274,14.5222 L23.274,15.59 Z" id="Shape"></path>
                    <path d="M31.73,3.55271368e-15 C30.962,3.55271368e-15 30.339,0.2204 29.862,0.6603 C29.384,1.1005 29.145,1.6672 29.145,2.3598 C29.145,3.0156 29.384,3.5632 29.862,4.0032 C30.339,4.4434 30.961,4.6632 31.73,4.6632 C32.516,4.6632 33.148,4.4435 33.626,4.0032 C34.103,3.5632 34.342,3.0156 34.342,2.3598 C34.342,1.6672 34.103,1.1005 33.626,0.6603 C33.148,0.2204 32.516,3.55271368e-15 31.73,3.55271368e-15 Z" id="Path"></path>
                    <polygon id="Path" points="33.72 5.843 29.815 5.843 29.815 20.843 33.72 20.843"></polygon>
                    <path d="M43.01,6.489 C41.942,7.0324 41.127,7.7812 40.565,8.7363 L40.565,5.8431 L36.97,5.8431 L36.97,20.8431 L40.875,20.8431 L40.875,13.5675 C40.875,12.4629 41.108,11.6152 41.577,11.0254 C42.045,10.4355 42.696,10.0519 43.529,9.8738 C44.362,9.6959 45.322,9.6445 46.408,9.7192 L46.408,5.6741 C45.21,5.6741 44.077,5.9456 43.01,6.4887 L43.01,6.489 Z" id="Path"></path>
                </g>
                <g id="Group" transform="translate(112.441165, 20.273500)" fill="#2CB6CD">
                    <polygon id="Path" points="4.269 0.674 -1.42108547e-14 0.674 -1.42108547e-14 20.843 13.034 20.843 13.034 16.9943 4.269 16.9943"></polygon>
                    <path d="M17.349,3.55271368e-15 C16.581,3.55271368e-15 15.958,0.2204 15.48,0.6603 C15.003,1.1005 14.764,1.6672 14.764,2.3598 C14.764,3.0156 15.003,3.5632 15.48,4.0032 C15.958,4.4434 16.58,4.6632 17.349,4.6632 C18.135,4.6632 18.767,4.4435 19.245,4.0032 C19.722,3.5632 19.961,3.0156 19.961,2.3598 C19.961,1.6672 19.722,1.1005 19.245,0.6603 C18.767,0.2204 18.135,3.55271368e-15 17.349,3.55271368e-15 Z" id="Path"></path>
                    <polygon id="Path" points="19.339 5.843 15.434 5.843 15.434 20.843 19.339 20.843"></polygon>
                    <path d="M28.319,5.112 C28.319,4.588 28.483,4.2132 28.811,3.9885 C29.138,3.7637 29.565,3.6512 30.089,3.6512 C30.351,3.6512 30.613,3.6702 30.875,3.7074 C31.137,3.7452 31.371,3.8107 31.578,3.9042 L31.578,0.8142 C31.259,0.6833 30.899,0.5754 30.496,0.4912 C30.094,0.4067 29.649,0.3647 29.162,0.3647 C27.607,0.3647 26.432,0.7675 25.637,1.5724 C24.841,2.3778 24.443,3.5294 24.443,5.0276 L24.443,5.8424 L21.409,5.8424 L21.409,9.185 L24.443,9.185 L24.443,20.843 L28.319,20.843 L28.319,9.185 L32.224,9.185 L32.224,5.8424 L28.319,5.8424 L28.319,5.112 Z" id="Path"></path>
                    <path d="M47.309,10.885 C47.029,9.8271 46.56,8.8953 45.905,8.09 C45.249,7.2848 44.439,6.6621 43.475,6.2218 C42.51,5.7821 41.439,5.5617 40.259,5.5617 C38.816,5.5617 37.534,5.8942 36.41,6.559 C35.286,7.224 34.406,8.1369 33.77,9.2978 C33.133,10.4591 32.815,11.7888 32.815,13.2868 C32.815,14.8414 33.124,16.2081 33.742,17.3879 C34.36,18.568 35.235,19.4806 36.368,20.1269 C37.501,20.7728 38.817,21.0959 40.315,21.0959 C42.15,21.0959 43.686,20.628 44.922,19.6914 C46.158,18.7553 46.991,17.4441 47.422,15.7586 L43.545,15.7586 C43.321,16.4891 42.927,17.0604 42.365,17.4723 C41.804,17.8844 41.092,18.0901 40.231,18.0901 C39.481,18.0901 38.844,17.9032 38.32,17.5283 C37.796,17.154 37.403,16.6111 37.14,15.899 C36.969,15.4339 36.855,14.8994 36.795,14.298 L47.45,14.298 C47.637,13.081 47.59,11.9432 47.309,10.885 L47.309,10.885 Z M36.851,11.8259 C36.919,11.3878 37.02,10.9895 37.155,10.632 C37.426,9.9114 37.815,9.3635 38.321,8.9887 C38.826,8.6145 39.444,8.4269 40.174,8.4269 C41.092,8.4269 41.836,8.7315 42.408,9.34 C42.979,9.9486 43.283,10.7774 43.321,11.8259 L36.851,11.8259 Z" id="Shape"></path>
                </g>
            </g>
        </g>
    </g>
</svg>