<?xml version="1.0" encoding="UTF-8"?>
<svg width="9px" height="9px" viewBox="0 0 9 9" version="1.1" xmlns="http://www.w3.org/2000/svg" xmlns:xlink="http://www.w3.org/1999/xlink">
    <title>icon_email</title>
    <defs>
        <polygon id="path-1" points="-1.77635684e-15 1.42108547e-14 8.14453036 1.42108547e-14 8.14453036 8.14452912 -1.77635684e-15 8.14452912"></polygon>
    </defs>
    <g id="Page-1" stroke="none" stroke-width="1" fill="none" fill-rule="evenodd">
        <g id="FairLife---DZ---e-mailovyÌ-podpis" transform="translate(-15.000000, -70.000000)">
            <g id="icon_email" transform="translate(15.350725, 70.300367)">
                <mask id="mask-2" fill="white">
                    <use xlink:href="#path-1"></use>
                </mask>
                <g id="Clip-22"></g>
                <path d="M4.07226518,-1.24319993e-06 C3.80487623,-1.24319993e-06 3.54005618,0.0260812434 3.27780526,0.0782461812 C3.01555434,0.130411122 2.76091142,0.20765621 2.51387649,0.309981429 C2.26684156,0.412306593 2.03216121,0.537745799 1.80983565,0.686299047 C1.58750998,0.834852294 1.38181109,1.00366512 1.19273873,1.19273748 C1.00366636,1.38180985 0.834853538,1.58750873 0.68630029,1.8098344 C0.537747043,2.03216021 0.412307836,2.26684059 0.309982617,2.51387552 C0.207657399,2.76091042 0.130412332,3.01555334 0.0782473918,3.27780426 C0.026082454,3.5400552 -1.77635684e-15,3.80487499 -1.77635684e-15,4.07226394 C-1.77635684e-15,4.33965294 0.026082454,4.60447235 0.0782473918,4.86672297 C0.130412332,5.1289744 0.207657399,5.38361722 0.309982617,5.63065195 C0.412307836,5.87768642 0.537747043,6.11236672 0.68630029,6.33469203 C0.834853538,6.55701762 1.00366636,6.76271724 1.19273873,6.9517898 C1.38181109,7.14086181 1.58750998,7.30967404 1.80983565,7.45822756 C2.03216145,7.60678107 2.26684183,7.73222014 2.51387676,7.83454585 C2.76091166,7.93687129 3.01555458,8.01411619 3.2778055,8.06628163 C3.54005645,8.11844626 3.80487623,8.14452912 4.07226518,8.14452912 C4.33965419,8.14452912 4.60447359,8.11844626 4.86672421,8.06628163 C5.12897565,8.01411619 5.38361846,7.93687129 5.6306532,7.83454585 C5.87768766,7.73222014 6.11236796,7.60678107 6.33469328,7.45822756 C6.55701887,7.30967404 6.76271848,7.14086181 6.95179104,6.9517898 C7.14086306,6.76271724 7.30967528,6.55701762 7.4582288,6.33469203 C7.60678232,6.11236672 7.73222139,5.87768642 7.8345471,5.63065195 C7.93687253,5.38361722 8.01411743,5.1289744 8.06628288,4.86672297 C8.11844751,4.60447235 8.14453036,4.33965294 8.14453036,4.07226394 C8.1444329,3.80490244 8.11826887,3.54011656 8.06603827,3.27790653 C8.01380794,3.01569652 7.93651254,2.76109606 7.83415344,2.51410465 C7.73179326,2.26711322 7.60633437,2.03247299 7.45777623,1.81018329 C7.30921756,1.58789373 7.14041239,1.38222243 6.95135965,1.19316933 C6.76230637,1.00411613 6.55663526,0.835310424 6.33434605,0.686752263 C6.11205657,0.53819402 5.87741591,0.412735158 5.63042461,0.310375678 C5.38343304,0.208016089 5.12883203,0.130720937 4.8666224,0.0784901044 C4.60441251,0.0262592746 4.33962677,9.54921021e-05 4.07226518,-1.24319993e-06 Z M2.18001921,2.40263532 L5.9645108,2.40263532 C6.03387369,2.40265837 6.10084454,2.41532749 6.16542279,2.44064321 L4.1184305,3.94195159 C4.08833456,3.96571206 4.05756621,3.96661692 4.02612577,3.94466649 L2.0035545,2.43249849 C2.06076456,2.41302166 2.11958628,2.40306744 2.18001921,2.40263532 Z M6.51566265,5.19077971 C6.51551814,5.34292144 6.46167465,5.47278299 6.35409436,5.58036382 C6.24651408,5.68794411 6.1166528,5.74178706 5.9645108,5.74189321 L2.18001921,5.74189321 C2.02787757,5.74178706 1.89801661,5.68794411 1.79043622,5.58036382 C1.68285582,5.47278299 1.62901249,5.34292144 1.62889144,5.19077971 L1.62889144,2.95374846 C1.62843589,2.89021279 1.63929526,2.82867614 1.66148417,2.76913903 L3.74376912,4.32202954 C3.84051618,4.39676538 3.95001494,4.43386778 4.07226518,4.43333812 C4.19380731,4.43357214 4.30330569,4.39737432 4.40076097,4.32474438 L6.48847586,2.78814312 C6.50728131,2.84174553 6.51633069,2.8969475 6.51566265,2.95374846 L6.51566265,5.19077971 Z" id="Fill-21" fill="#F9A825" mask="url(#mask-2)"></path>
            </g>
        </g>
    </g>
</svg>