<?xml version="1.0" encoding="UTF-8"?>
<svg width="10px" height="10px" viewBox="0 0 10 10" version="1.1" xmlns="http://www.w3.org/2000/svg" xmlns:xlink="http://www.w3.org/1999/xlink">
    <title>icon_facebook</title>
    <defs>
        <path d="M8.09159822,0 C8.87129438,0 9.51204685,0.594887992 9.58473158,1.35553992 L9.59159816,1.5 L9.59159816,8.09159966 C9.59159816,8.87129582 8.99671017,9.51204829 8.23605824,9.58473302 L8.09159822,9.5915996 L1.5,9.5915996 C0.720303386,9.5915996 0.0795512604,8.99671161 0.00686657255,8.23605968 L0,8.09159966 L0,1.5 C0,0.720303782 0.594887567,0.0795513102 1.35554065,0.00686657704 L1.5,0 L8.09159822,0 Z" id="path-1"></path>
    </defs>
    <g id="Page-1" stroke="none" stroke-width="1" fill="none" fill-rule="evenodd">
        <g id="FairLife---DZ---e-mailovyÌ-podpis" transform="translate(-39.000000, -116.000000)">
            <g id="icon_facebook" transform="translate(38.999306, 116.173639)">
                <mask id="mask-2" fill="white">
                    <use xlink:href="#path-1"></use>
                </mask>
                <g id="Clip-55"></g>
                <path d="M9.05619384,9.58524268 C9.34830381,9.58524268 9.58518483,9.34838095 9.58518483,9.05619384 L9.58518483,0.529029557 C9.58518483,0.236804068 9.34832329,0 9.05619384,0 L0.529029557,0 C0.236765504,0 0,0.236804068 0,0.529029557 L0,9.05619384 C0,9.34836147 0.236765504,9.58524268 0.529029557,9.58524268 L9.05619384,9.58524268 Z" id="Fill-54" fill="#12456B" mask="url(#mask-2)"></path>
                <path d="M6.61362133,9.58524268 L6.61362133,5.87333902 L7.85954205,5.87333902 L8.04611185,4.42673224 L6.61362075,4.42673224 L6.61362075,3.5031385 C6.61362075,3.08431552 6.72990158,2.79887786 7.33053159,2.79887786 L8.09655806,2.79853064 L8.09655806,1.5047086 C7.96405962,1.48710253 7.50934971,1.44770589 6.98033925,1.44770589 C5.8758837,1.44770589 5.11976867,2.12184543 5.11976867,3.35989884 L5.11976867,4.42671296 L3.87062815,4.42671296 L3.87062815,5.87331973 L5.11975035,5.87331973 L5.11975035,9.58524268 L6.61362133,9.58524268 L6.61362133,9.58524268 Z" id="Fill-56" fill="#FFFFFF" mask="url(#mask-2)"></path>
            </g>
        </g>
    </g>
</svg>