<?xml version="1.0" encoding="UTF-8"?>
<svg width="10px" height="10px" viewBox="0 0 10 10" version="1.1" xmlns="http://www.w3.org/2000/svg" xmlns:xlink="http://www.w3.org/1999/xlink">
    <title>icon_instagram</title>
    <g id="Page-1" stroke="none" stroke-width="1" fill="none" fill-rule="evenodd">
        <g id="FairLife---DZ---e-mailovyÌ-podpis" transform="translate(-27.000000, -116.000000)" fill="#12456B">
            <g id="icon_instagram" transform="translate(27.157708, 116.173640)">
                <path d="M8.16100068,9.58593731 L1.42493663,9.58593731 C0.639226675,9.58593731 0,8.94671074 0,8.16100068 L0,1.42493663 C0,0.639226675 0.639226675,0 1.42493663,0 L8.16100068,0 C8.94671074,0 9.58593731,0.639226675 9.58593731,1.42493663 L9.58593731,8.16100068 C9.58593731,8.94671074 8.94671074,9.58593731 8.16100068,9.58593731 Z M1.42493663,0.518158774 C0.924939422,0.518158774 0.518158774,0.924939422 0.518158774,1.42493663 L0.518158774,8.16100068 C0.518158774,8.66099825 0.924939422,9.06777854 1.42493663,9.06777854 L8.16100068,9.06777854 C8.66099825,9.06777854 9.06777854,8.66099825 9.06777854,8.16100068 L9.06777854,1.42493663 C9.06777854,0.924939422 8.66099825,0.518158774 8.16100068,0.518158774 L1.42493663,0.518158774 Z" id="Fill-32"></path>
                <path d="M4.79296866,7.51330222 C3.29297673,7.51330222 2.07263509,6.29296058 2.07263509,4.79296866 C2.07263509,3.29297673 3.29297673,2.07263509 4.79296866,2.07263509 C6.29296058,2.07263509 7.51330222,3.29297673 7.51330222,4.79296866 C7.51330222,6.29296058 6.29296058,7.51330222 4.79296866,7.51330222 Z M4.79296866,2.59079387 C3.57868948,2.59079387 2.59079387,3.57868948 2.59079387,4.79296866 C2.59079387,6.00724835 3.57868948,6.99514344 4.79296866,6.99514344 C6.00724835,6.99514344 6.99514344,6.00724757 6.99514344,4.79296866 C6.99514344,3.57868974 6.00724757,2.59079387 4.79296866,2.59079387 Z" id="Fill-34"></path>
                <path d="M7.64284191,2.84987325 C7.14284434,2.84987325 6.73606406,2.44309261 6.73606406,1.9430954 C6.73606406,1.4430982 7.14284434,1.03631755 7.64284191,1.03631755 C8.14283948,1.03631755 8.54961976,1.4430982 8.54961976,1.9430954 C8.54961976,2.44309261 8.14283948,2.84987325 7.64284191,2.84987325 Z M7.64284191,1.55447632 C7.42855735,1.55447632 7.25422283,1.72881094 7.25422283,1.9430954 C7.25422283,2.15737986 7.42855735,2.33171448 7.64284191,2.33171448 C7.85712647,2.33171448 8.03146099,2.15737986 8.03146099,1.9430954 C8.03146099,1.72881094 7.85712647,1.55447632 7.64284191,1.55447632 Z" id="Fill-35"></path>
            </g>
        </g>
    </g>
</svg>