<?xml version="1.0" encoding="UTF-8"?>
<svg width="10px" height="10px" viewBox="0 0 10 10" version="1.1" xmlns="http://www.w3.org/2000/svg" xmlns:xlink="http://www.w3.org/1999/xlink">
    <title>icon_linkedin</title>
    <defs>
        <polygon id="path-1" points="1.77635684e-15 0 9.58560034 0 9.58560034 9.58500812 1.77635684e-15 9.58500812"></polygon>
    </defs>
    <g id="Page-1" stroke="none" stroke-width="1" fill="none" fill-rule="evenodd">
        <g id="FairLife---DZ---e-mailovyÌ-podpis" transform="translate(-15.000000, -116.000000)">
            <g id="icon_linkedin" transform="translate(15.351101, 116.173639)">
                <mask id="mask-2" fill="white">
                    <use xlink:href="#path-1"></use>
                </mask>
                <g id="Clip-25"></g>
                <path d="M9.58560034,8.12840077 C9.58560034,8.93284729 8.9334203,9.58500812 8.12891456,9.58500812 L1.45656732,9.58500812 C0.652081405,9.58500812 1.77635684e-15,8.93284729 1.77635684e-15,8.12840137 L1.77635684e-15,1.45601391 C1.77635684e-15,0.651528004 0.652101191,-0.00059299325 1.45656732,-0.00059299325 L8.12893397,-0.00059299325 C8.93343951,-0.00059299325 9.58560034,0.651528004 9.58560034,1.45601391 L9.58560034,8.12840077 L9.58560034,8.12840077 Z" id="Fill-24" fill="#12456B" mask="url(#mask-2)"></path>
                <path d="M3.79032723,3.41928923 C3.79032723,3.61702711 3.72041584,3.78580735 3.58059405,3.92562953 C3.44077206,4.06545132 3.27199222,4.13536251 3.07425384,4.13536251 C2.87651552,4.13536251 2.70773529,4.06545112 2.56791314,3.92562894 C2.42809102,3.78580715 2.3581804,3.61702711 2.3581804,3.41928923 C2.3581804,3.22155075 2.42809102,3.05277058 2.56791314,2.91294873 C2.70773529,2.7731266 2.87651552,2.70321567 3.07425384,2.70321567 C3.27199222,2.70321567 3.44077206,2.7731266 3.58059405,2.91294843 C3.72041584,3.05277058 3.79032723,3.22155075 3.79032723,3.41928923 Z" id="Fill-26" fill="#FFFFFF" mask="url(#mask-2)"></path>
                <polygon id="Fill-27" fill="#FFFFFF" mask="url(#mask-2)" points="2.45695119 4.66328227 3.6871397 4.66328227 3.6871397 8.62078898 2.45695119 8.62078898"></polygon>
                <polygon id="Fill-28" fill="#FFFFFF" mask="url(#mask-2)" points="4.4608477 4.66328227 5.63175797 4.66328227 5.63175797 8.62078898 4.4608477 8.62078898"></polygon>
                <polygon id="Fill-29" fill="#FFFFFF" mask="url(#mask-2)" points="4.51147096 6.77036677 5.68232199 6.77036677 5.68232199 8.6207891 4.51147096 8.6207891"></polygon>
                <path d="M5.68232191,6.77036677 C5.68232191,6.77036677 5.66402128,6.25706378 5.79939334,5.99018238 C5.79939334,5.99018238 5.9347848,5.66150752 6.36030971,5.65952676 C6.36030971,5.65952676 6.85935262,5.57240207 7.00246849,6.06758268 C7.00246849,6.06758268 7.05663676,6.3422079 7.05663676,6.45830866 C7.05663676,6.57440941 7.06051886,8.62080898 7.06051886,8.62080898 L8.28680624,8.62080898 L8.28680624,6.35387324 C8.28680624,6.35387324 8.37581266,5.07335837 7.60723438,4.7225806 C7.60723438,4.7225806 6.34349471,4.15522779 5.65758544,5.19716372 C5.65758544,5.19716372 5.50797391,5.30027197 5.48731602,5.01142648 C5.46665872,4.7225808 5.29131925,5.45503376 5.28614957,5.47054139 C5.28098069,5.4860098 5.48731602,6.93025783 5.48731602,6.93025783 L5.68232191,6.77036677 Z" id="Fill-30" fill="#FFFFFF" mask="url(#mask-2)"></path>
            </g>
        </g>
    </g>
</svg>