<?xml version="1.0" encoding="UTF-8"?>
<svg width="9px" height="9px" viewBox="0 0 9 9" version="1.1" xmlns="http://www.w3.org/2000/svg" xmlns:xlink="http://www.w3.org/1999/xlink">
    <title>icon_phone</title>
    <defs>
        <polygon id="path-1" points="0 0 8.24999966 0 8.24999966 8.24999966 0 8.24999966"></polygon>
    </defs>
    <g id="Page-1" stroke="none" stroke-width="1" fill="none" fill-rule="evenodd">
        <g id="FairLife---DZ---e-mailovyÌ-podpis" transform="translate(-15.000000, -50.000000)">
            <g id="icon_phone" transform="translate(15.350725, 50.720875)">
                <mask id="mask-2" fill="white">
                    <use xlink:href="#path-1"></use>
                </mask>
                <g id="Clip-7"></g>
                <path d="M4.16015611,0 C1.86208591,0 0,1.86208591 0,4.16015611 C0,6.45822651 1.86208591,8.32031221 4.16015611,8.32031221 C6.45822651,8.32031221 8.32031221,6.45822651 8.32031221,4.16015611 C8.32031221,1.86208577 6.45822651,0 4.16015611,0 Z M6.31511697,5.76264807 C6.31511697,5.90242915 6.25521056,6.03555415 6.15203902,6.13040587 C6.04886698,6.22525776 5.9090859,6.27185118 5.76930466,6.25853901 C5.29005484,6.21360899 4.82578108,6.08714075 4.39146112,5.88079651 C3.96878942,5.67944495 3.58771896,5.40986717 3.25490647,5.07871824 C2.92375821,4.74756998 2.65251593,4.36483562 2.45282844,3.94216359 C2.24648481,3.50784313 2.11835192,3.04523377 2.07508632,2.56431982 C2.07342229,2.54934336 2.07342229,2.53436665 2.07342229,2.51939019 C2.07342229,2.39458551 2.12001608,2.27477306 2.20321907,2.18158546 C2.29807058,2.07841364 2.43119558,2.01850729 2.57097699,2.01850729 L3.23993008,2.01850729 C3.49453163,2.01850729 3.70586756,2.2082103 3.73415645,2.45948384 C3.75079708,2.60758528 3.78075037,2.75402283 3.82401583,2.89546815 C3.87892989,3.07352283 3.83067191,3.26489001 3.70087521,3.39468688 L3.42963303,3.66592906 C3.71418787,4.18511654 4.14684377,4.61777278 4.66603142,4.90232762 L4.93727343,4.63108561 C5.06707014,4.50128891 5.25843732,4.45303076 5.43649217,4.50794499 C5.57793747,4.55121078 5.7243748,4.58116374 5.87247669,4.59780436 C6.12375029,4.62609359 6.31345324,4.83909342 6.31345324,5.09203107 L6.31345324,5.76264807 L6.31511697,5.76264807 Z" id="Fill-6" fill="#F9A825" mask="url(#mask-2)"></path>
            </g>
        </g>
    </g>
</svg>