<?xml version="1.0" encoding="UTF-8"?>
<svg width="9px" height="9px" viewBox="0 0 9 9" version="1.1" xmlns="http://www.w3.org/2000/svg" xmlns:xlink="http://www.w3.org/1999/xlink">
    <title>icon_web</title>
    <defs>
        <polygon id="path-1" points="0 0 8.24999966 0 8.24999966 8.24999966 0 8.24999966"></polygon>
    </defs>
    <g id="Page-1" stroke="none" stroke-width="1" fill="none" fill-rule="evenodd">
        <g id="FairLife---DZ---e-mailovyÌ-podpis" transform="translate(-15.000000, -93.000000)">
            <g id="icon_web" transform="translate(15.350725, 93.523040)">
                <mask id="mask-2" fill="white">
                    <use xlink:href="#path-1"></use>
                </mask>
                <g id="Clip-10"></g>
                <path d="M2.55319824,3.07086128 L3.01533311,3.07086128 C3.06845635,2.84791933 3.13737518,2.64293391 3.219197,2.46170724 C3.0628663,2.54861562 2.91766678,2.65775451 2.78771082,2.78771082 C2.69987626,2.87554536 2.62159705,2.97038392 2.55319824,3.07086128 Z" id="Fill-9" fill="#F9A825" mask="url(#mask-2)"></path>
                <path d="M2.55319824,5.24945082 C2.62161342,5.3499285 2.69987626,5.44476706 2.78771082,5.5326016 C2.91766678,5.66255789 3.06286598,5.77169698 3.219197,5.85860508 C3.13735893,5.67737812 3.06845635,5.47239326 3.01533311,5.24945082 L2.55319824,5.24945082 Z" id="Fill-11" fill="#F9A825" mask="url(#mask-2)"></path>
                <path d="M5.76711366,3.07086128 C5.6986986,2.97038392 5.62043566,2.87554536 5.53260112,2.78771082 C5.40264483,2.65775476 5.25744563,2.54861562 5.10111477,2.46170724 C5.18295316,2.64293391 5.25185559,2.84791933 5.30497899,3.07086128 L5.76711366,3.07086128 Z" id="Fill-12" fill="#F9A825" mask="url(#mask-2)"></path>
                <path d="M4.52501473,2.63329751 C4.3685862,2.32044079 4.21165439,2.21923206 4.16015605,2.21923206 C4.1086577,2.21923206 3.95172573,2.32044079 3.79529736,2.63329751 C3.73050618,2.7628963 3.67489676,2.91051684 3.62941114,3.07086128 L4.69090096,3.07086128 C4.64539909,2.91051684 4.58980591,2.76287989 4.52501473,2.63329751 Z" id="Fill-13" fill="#F9A825" mask="url(#mask-2)"></path>
                <path d="M3.79529736,5.68701457 C3.95172589,5.99987147 4.10865803,6.10108026 4.16015605,6.10108026 C4.21165439,6.10108026 4.3685862,5.99987147 4.52501473,5.68701457 C4.58980591,5.5574158 4.64541534,5.40979558 4.69090096,5.24945082 L3.62941114,5.24945082 C3.67491285,5.40979558 3.73050618,5.55743221 3.79529736,5.68701457 Z" id="Fill-14" fill="#F9A825" mask="url(#mask-2)"></path>
                <path d="M2.8926085,4.16015605 C2.8926085,3.99069485 2.90099398,3.82516598 2.91685441,3.66501639 L2.28273951,3.66501639 C2.24092672,3.82467846 2.21921594,3.99072736 2.21921594,4.16015605 C2.21921594,4.32958474 2.2409106,4.49563379 2.28273951,4.65529571 L2.91685441,4.65529571 C2.90099398,4.49514628 2.8926085,4.32961757 2.8926085,4.16015605 Z" id="Fill-15" fill="#F9A825" mask="url(#mask-2)"></path>
                <path d="M5.42770359,4.16015605 C5.42770359,4.32961757 5.41931844,4.49514628 5.40345768,4.65529571 L6.03757256,4.65529571 C6.07938538,4.49563331 6.10109619,4.32958474 6.10109619,4.16015605 C6.10109619,3.99072736 6.07940179,3.82467846 6.03757256,3.66501639 L5.40345768,3.66501639 C5.41931844,3.82516598 5.42770359,3.99069485 5.42770359,4.16015605 Z" id="Fill-16" fill="#F9A825" mask="url(#mask-2)"></path>
                <path d="M4.16015605,0 C1.86256358,0 0,1.86256358 0,4.16015605 C0,6.45774864 1.86256358,8.3203121 4.16015605,8.3203121 C6.45774864,8.3203121 8.3203121,6.45774864 8.3203121,4.16015605 C8.3203121,1.86256345 6.45774864,0 4.16015605,0 Z M4.16015605,6.69525114 C2.76006837,6.69525114 1.62506096,5.56024373 1.62506096,4.16015605 C1.62506096,2.76006837 2.76006837,1.62506096 4.16015605,1.62506096 C5.56024373,1.62506096 6.69525114,2.76006837 6.69525114,4.16015605 C6.69525114,5.56024373 5.56024373,6.69525114 4.16015605,6.69525114 Z" id="Fill-17" fill="#F9A825" mask="url(#mask-2)"></path>
                <path d="M3.51463292,3.66501639 C3.49635099,3.82591367 3.48677938,3.99209224 3.48677938,4.16015605 C3.48677938,4.32821953 3.49635099,4.49439842 3.51463292,4.65529571 L4.80569526,4.65529571 C4.8239772,4.49439842 4.83354864,4.32821953 4.83354864,4.16015605 C4.83354864,3.99209257 4.8239772,3.82591367 4.80569526,3.66501639 L3.51463292,3.66501639 Z" id="Fill-18" fill="#F9A825" mask="url(#mask-2)"></path>
                <path d="M5.10111542,5.85860459 C5.25744612,5.7716965 5.40264532,5.6625574 5.5326016,5.53260112 C5.62043615,5.44476657 5.69869925,5.34992801 5.76711415,5.24945033 L5.30497948,5.24945033 C5.25185559,5.47239277 5.18295316,5.67737812 5.10111542,5.85860459 Z" id="Fill-19" fill="#F9A825" mask="url(#mask-2)"></path>
            </g>
        </g>
    </g>
</svg>